<svg xmlns="http://www.w3.org/2000/svg" xmlns:xlink="http://www.w3.org/1999/xlink" width="500" zoomAndPan="magnify" viewBox="0 0 375 374.999991" height="500" preserveAspectRatio="xMidYMid meet" version="1.0"><defs><g/><clipPath id="ad37ccd042"><path d="M 216 175 L 269 175 L 269 220 L 216 220 Z M 216 175 " clip-rule="nonzero"/></clipPath><clipPath id="3033a8c055"><path d="M 233.195312 162.972656 L 280.417969 194.898438 L 263.195312 220.371094 L 215.972656 188.449219 Z M 233.195312 162.972656 " clip-rule="nonzero"/></clipPath><clipPath id="1855710a1b"><path d="M 233.195312 162.972656 L 280.417969 194.898438 L 263.195312 220.371094 L 215.972656 188.449219 Z M 233.195312 162.972656 " clip-rule="nonzero"/></clipPath></defs><path stroke-linecap="butt" transform="matrix(0.75, 0, 0, 0.75, 107.936028, 225.019322)" fill="none" stroke-linejoin="miter" d="M 0.00196292 0.500279 L 71.007176 0.500279 " stroke="#ae7b37" stroke-width="1" stroke-opacity="1" stroke-miterlimit="4"/><path stroke-linecap="butt" transform="matrix(0.75, 0, 0, 0.75, 223.297929, 225.394322)" fill="none" stroke-linejoin="miter" d="M -0.00140538 0.500279 L 71.009016 0.500279 " stroke="#ae7b37" stroke-width="1" stroke-opacity="1" stroke-miterlimit="4"/><g clip-path="url(#ad37ccd042)"><g clip-path="url(#3033a8c055)"><g clip-path="url(#1855710a1b)"><path fill="#ae7b37" d="M 268.390625 197.722656 C 268.101562 197.910156 267.816406 197.964844 267.539062 198.019531 C 265.9375 198.339844 264.339844 198.660156 262.730469 198.9375 C 261.117188 199.21875 259.515625 199.59375 257.902344 199.894531 C 256.054688 200.238281 254.28125 200.894531 252.421875 201.179688 C 252.253906 201.203125 252.003906 201.328125 251.949219 201.09375 C 251.898438 200.875 252.171875 200.828125 252.335938 200.789062 C 253.507812 200.523438 254.679688 200.257812 255.859375 200.023438 C 257.6875 199.660156 259.515625 199.289062 261.335938 198.867188 C 262.515625 198.589844 263.71875 198.410156 264.910156 198.203125 C 265.882812 198.03125 266.855469 197.875 267.832031 197.71875 C 268 197.691406 268.167969 197.636719 268.390625 197.722656 Z M 233.601562 175.953125 C 233.761719 176.886719 233.925781 177.816406 234.082031 178.75 C 234.652344 182.117188 235.492188 185.429688 236.121094 188.789062 C 236.238281 189.410156 236.402344 190.023438 236.617188 190.621094 C 236.652344 190.71875 236.6875 190.851562 236.824219 190.828125 C 236.988281 190.800781 236.960938 190.648438 236.945312 190.539062 C 236.898438 190.230469 236.855469 189.917969 236.769531 189.621094 C 235.761719 186.136719 235.328125 182.53125 234.480469 179.011719 C 234.21875 177.917969 234.015625 176.808594 233.640625 175.695312 C 233.558594 175.8125 233.589844 175.886719 233.601562 175.953125 Z M 263.421875 219.40625 C 262.152344 218.488281 260.890625 217.558594 259.609375 216.65625 C 258.34375 215.765625 257.011719 214.976562 255.667969 214.214844 C 254.4375 213.511719 253.285156 212.679688 252.097656 211.90625 C 251.503906 211.519531 250.902344 211.148438 250.300781 210.777344 C 250.199219 210.714844 250.054688 210.574219 249.960938 210.695312 C 249.84375 210.851562 250.054688 210.9375 250.144531 211.015625 C 250.449219 211.285156 250.800781 211.496094 251.15625 211.695312 C 252.757812 212.578125 254.289062 213.5625 255.78125 214.617188 C 258.203125 216.324219 260.734375 217.871094 263.21875 219.484375 C 263.324219 219.554688 263.425781 219.640625 263.582031 219.621094 C 263.566406 219.503906 263.488281 219.453125 263.421875 219.40625 Z M 255.894531 178.742188 C 255.152344 179.714844 254.445312 180.714844 253.761719 181.730469 C 252.390625 183.757812 251.179688 185.886719 249.828125 187.925781 C 248.859375 189.386719 247.816406 190.789062 246.78125 192.203125 C 246.667969 192.355469 246.539062 192.507812 246.511719 192.707031 C 246.5 192.773438 246.496094 192.839844 246.5625 192.878906 C 246.628906 192.917969 246.6875 192.882812 246.734375 192.835938 C 246.796875 192.777344 246.855469 192.714844 246.90625 192.644531 C 247.488281 191.820312 248.078125 191.003906 248.648438 190.171875 C 249.585938 188.796875 250.449219 187.375 251.335938 185.96875 C 252.335938 184.390625 253.394531 182.851562 254.421875 181.292969 C 255.015625 180.386719 255.648438 179.507812 256.175781 178.511719 C 256.019531 178.566406 255.960938 178.660156 255.894531 178.742188 Z M 265.09375 209.058594 C 261.753906 208.261719 258.414062 207.460938 255.070312 206.675781 C 254.171875 206.46875 253.261719 206.316406 252.355469 206.144531 C 252.222656 206.117188 252.042969 206.0625 252 206.25 C 251.960938 206.429688 252.148438 206.429688 252.261719 206.464844 C 252.691406 206.597656 253.125 206.722656 253.570312 206.8125 C 257.171875 207.511719 260.753906 208.320312 264.339844 209.105469 C 264.796875 209.203125 265.257812 209.285156 265.726562 209.289062 C 265.535156 209.144531 265.308594 209.109375 265.09375 209.058594 Z M 216.570312 187.957031 C 218.09375 189.054688 219.605469 190.167969 221.132812 191.261719 C 223.117188 192.679688 225.164062 194.003906 227.070312 195.523438 C 227.453125 195.832031 227.875 196.097656 228.332031 196.292969 C 228.441406 196.339844 228.589844 196.433594 228.679688 196.289062 C 228.769531 196.144531 228.628906 196.042969 228.527344 195.980469 C 227.878906 195.558594 227.277344 195.066406 226.613281 194.675781 C 225.582031 194.070312 224.578125 193.425781 223.636719 192.695312 C 221.667969 191.164062 219.632812 189.734375 217.53125 188.398438 C 217.1875 188.179688 216.839844 187.941406 216.429688 187.839844 C 216.476562 187.878906 216.519531 187.921875 216.570312 187.957031 Z M 243.808594 178.253906 C 243.476562 180.339844 243.050781 182.414062 242.636719 184.484375 C 242.277344 186.285156 241.875 188.074219 241.5 189.871094 C 241.449219 190.101562 241.433594 190.339844 241.410156 190.574219 C 241.398438 190.660156 241.40625 190.753906 241.511719 190.785156 C 241.621094 190.8125 241.695312 190.746094 241.734375 190.648438 C 241.765625 190.570312 241.792969 190.484375 241.808594 190.402344 C 241.890625 189.957031 241.980469 189.515625 242.042969 189.070312 C 242.375 186.785156 242.816406 184.523438 243.382812 182.285156 C 243.71875 180.953125 244.019531 179.609375 244.078125 178.230469 C 244.085938 178.0625 244.117188 177.886719 244.003906 177.714844 C 243.851562 177.871094 243.839844 178.070312 243.808594 178.253906 Z M 224.816406 182.636719 C 226.019531 184.308594 227.234375 185.972656 228.429688 187.652344 C 229.425781 189.050781 230.289062 190.539062 231.242188 191.964844 C 231.425781 192.242188 231.625 192.507812 231.851562 192.753906 C 231.917969 192.828125 232.007812 192.886719 232.105469 192.820312 C 232.222656 192.742188 232.191406 192.636719 232.128906 192.535156 C 232.09375 192.480469 232.054688 192.429688 232.015625 192.378906 C 230.789062 190.789062 229.648438 189.140625 228.554688 187.457031 C 227.289062 185.503906 225.992188 183.570312 224.496094 181.777344 C 224.386719 181.648438 224.296875 181.496094 224.050781 181.398438 C 224.28125 181.890625 224.546875 182.265625 224.816406 182.636719 Z M 261.1875 188.503906 C 260.542969 188.890625 259.933594 189.328125 259.324219 189.765625 C 257.433594 191.128906 255.554688 192.5 253.664062 193.855469 C 252.5625 194.640625 251.445312 195.398438 250.34375 196.183594 C 250.214844 196.273438 249.953125 196.390625 250.121094 196.601562 C 250.273438 196.796875 250.453125 196.597656 250.585938 196.492188 C 251.328125 195.925781 252.046875 195.324219 252.800781 194.777344 C 255.199219 193.042969 257.613281 191.328125 260.015625 189.601562 C 260.554688 189.214844 261.109375 188.847656 261.605469 188.359375 C 261.414062 188.335938 261.304688 188.433594 261.1875 188.503906 Z M 259.414062 196.347656 C 257.71875 196.929688 256.070312 197.636719 254.351562 198.15625 C 253.519531 198.40625 252.710938 198.734375 251.894531 199.035156 C 251.730469 199.09375 251.441406 199.140625 251.519531 199.382812 C 251.605469 199.644531 251.855469 199.480469 252.023438 199.429688 C 252.339844 199.328125 252.648438 199.207031 252.953125 199.074219 C 253.988281 198.625 255.019531 198.160156 256.097656 197.832031 C 257.464844 197.417969 258.800781 196.914062 260.132812 196.398438 C 260.4375 196.28125 260.757812 196.179688 260.992188 195.917969 C 260.441406 195.984375 259.929688 196.171875 259.414062 196.347656 Z M 222.511719 189.082031 C 224.503906 190.746094 226.488281 192.417969 228.371094 194.203125 C 228.664062 194.484375 228.941406 194.789062 229.304688 194.988281 C 229.40625 195.042969 229.550781 195.140625 229.644531 194.984375 C 229.722656 194.855469 229.597656 194.765625 229.515625 194.691406 C 229.132812 194.34375 228.761719 193.988281 228.363281 193.664062 C 226.910156 192.476562 225.511719 191.226562 224.085938 190.003906 C 223.375 189.398438 222.589844 188.910156 221.78125 188.449219 C 222.023438 188.664062 222.265625 188.878906 222.511719 189.082031 Z M 262.78125 201.636719 C 262.695312 201.632812 262.609375 201.628906 262.527344 201.632812 C 261.1875 201.738281 259.851562 201.839844 258.511719 201.953125 C 257.699219 202.019531 256.890625 202.117188 256.074219 202.175781 C 255.121094 202.25 254.167969 202.292969 253.214844 202.355469 C 252.925781 202.375 252.636719 202.417969 252.359375 202.511719 C 252.265625 202.546875 252.171875 202.585938 252.191406 202.710938 C 252.210938 202.832031 252.3125 202.851562 252.410156 202.855469 C 252.476562 202.859375 252.539062 202.855469 252.605469 202.84375 C 253.125 202.777344 253.644531 202.691406 254.167969 202.636719 C 255.4375 202.503906 256.707031 202.335938 257.984375 202.265625 C 259.335938 202.195312 260.679688 202.070312 262.019531 201.875 C 262.285156 201.835938 262.550781 201.824219 262.816406 201.800781 C 262.804688 201.746094 262.792969 201.691406 262.78125 201.636719 Z M 231.765625 182.386719 C 232.710938 185.214844 233.871094 187.964844 234.777344 190.808594 C 234.816406 190.925781 234.882812 191.039062 234.949219 191.148438 C 235 191.234375 235.074219 191.316406 235.183594 191.257812 C 235.300781 191.195312 235.25 191.09375 235.214844 191.003906 C 235.082031 190.652344 234.949219 190.300781 234.808594 189.953125 C 234.027344 188.023438 233.457031 186.019531 232.671875 184.089844 C 232.390625 183.398438 232.164062 182.683594 231.714844 182.015625 C 231.679688 182.191406 231.734375 182.289062 231.765625 182.386719 Z M 237.074219 181.867188 C 237.175781 183.644531 237.492188 185.402344 237.636719 187.175781 C 237.71875 188.179688 237.816406 189.183594 237.925781 190.1875 C 237.941406 190.347656 237.929688 190.632812 238.175781 190.59375 C 238.402344 190.558594 238.285156 190.304688 238.265625 190.152344 C 238.070312 188.511719 237.773438 186.878906 237.71875 185.226562 C 237.675781 183.96875 237.472656 182.757812 237.089844 181.503906 C 237.019531 181.664062 237.066406 181.765625 237.074219 181.867188 Z M 253.125 187.6875 C 252.925781 187.898438 252.710938 188.097656 252.535156 188.324219 C 251.171875 190.066406 249.691406 191.707031 248.171875 193.308594 C 248.082031 193.402344 248.007812 193.507812 247.941406 193.617188 C 247.890625 193.691406 247.871094 193.78125 247.953125 193.851562 C 248.035156 193.917969 248.117188 193.882812 248.183594 193.824219 C 248.34375 193.679688 248.507812 193.539062 248.648438 193.375 C 249.988281 191.8125 251.324219 190.25 252.609375 188.640625 C 252.84375 188.34375 253.058594 188.027344 253.246094 187.648438 C 253.175781 187.671875 253.140625 187.671875 253.125 187.6875 Z M 247.898438 185.113281 C 247.429688 186.03125 247.0625 186.992188 246.613281 187.917969 C 246.109375 188.972656 245.574219 190.011719 245.058594 191.058594 C 244.984375 191.203125 244.921875 191.351562 244.871094 191.503906 C 244.832031 191.621094 244.765625 191.769531 244.917969 191.847656 C 245.078125 191.929688 245.144531 191.78125 245.210938 191.675781 C 245.269531 191.585938 245.3125 191.484375 245.355469 191.386719 C 246.101562 189.726562 246.847656 188.066406 247.582031 186.398438 C 247.792969 185.925781 248.035156 185.457031 248.109375 184.898438 C 247.953125 184.949219 247.9375 185.039062 247.898438 185.113281 Z M 230.433594 186.757812 C 230.800781 187.449219 231.175781 188.136719 231.570312 188.8125 C 232.09375 189.703125 232.417969 190.6875 232.960938 191.566406 C 233.050781 191.710938 233.132812 191.867188 233.28125 191.964844 C 233.34375 192.007812 233.414062 192.046875 233.484375 191.988281 C 233.550781 191.9375 233.558594 191.859375 233.527344 191.785156 C 233.445312 191.597656 233.371094 191.40625 233.273438 191.230469 C 232.417969 189.707031 231.5625 188.183594 230.699219 186.664062 C 230.585938 186.464844 230.484375 186.25 230.25 186.109375 C 230.191406 186.378906 230.332031 186.570312 230.433594 186.757812 Z M 253.632812 190.957031 C 253.09375 191.417969 252.535156 191.855469 252.027344 192.347656 C 251.1875 193.164062 250.226562 193.84375 249.453125 194.726562 C 249.332031 194.867188 249.0625 195.039062 249.238281 195.226562 C 249.445312 195.449219 249.636719 195.175781 249.757812 195.035156 C 250.691406 193.945312 251.8125 193.054688 252.847656 192.074219 C 253.246094 191.695312 253.59375 191.269531 253.886719 190.785156 C 253.800781 190.84375 253.710938 190.894531 253.632812 190.957031 Z M 259.207031 213.679688 C 258.78125 213.457031 258.363281 213.214844 257.929688 213.007812 C 256.34375 212.265625 254.789062 211.46875 253.269531 210.601562 C 252.578125 210.210938 251.890625 209.8125 251.148438 209.515625 C 251.027344 209.464844 250.847656 209.359375 250.773438 209.507812 C 250.679688 209.6875 250.90625 209.71875 251.015625 209.773438 C 251.886719 210.210938 252.773438 210.621094 253.636719 211.074219 C 255.121094 211.847656 256.613281 212.613281 258.128906 213.324219 C 258.46875 213.484375 258.832031 213.601562 259.183594 213.742188 C 259.191406 213.722656 259.199219 213.699219 259.207031 213.679688 Z M 256.28125 194.789062 C 255.25 195.289062 254.277344 195.902344 253.234375 196.386719 C 252.59375 196.683594 251.984375 197.046875 251.359375 197.382812 C 251.226562 197.453125 251.097656 197.53125 251.003906 197.652344 C 250.953125 197.722656 250.890625 197.796875 250.960938 197.882812 C 251.015625 197.957031 251.101562 197.929688 251.167969 197.898438 C 251.398438 197.789062 251.636719 197.683594 251.855469 197.550781 C 253.039062 196.859375 254.210938 196.144531 255.460938 195.566406 C 255.886719 195.371094 256.316406 195.164062 256.679688 194.855469 C 256.738281 194.808594 256.851562 194.769531 256.734375 194.65625 C 256.570312 194.644531 256.425781 194.71875 256.28125 194.789062 Z M 244.421875 185.789062 C 243.929688 187.332031 243.441406 188.871094 242.953125 190.414062 C 242.902344 190.578125 242.851562 190.742188 242.859375 190.917969 C 242.863281 191.023438 242.90625 191.109375 243.019531 191.128906 C 243.117188 191.144531 243.179688 191.078125 243.21875 190.996094 C 243.269531 190.878906 243.3125 190.757812 243.351562 190.632812 C 243.8125 189.074219 244.183594 187.484375 244.578125 185.90625 C 244.605469 185.789062 244.671875 185.664062 244.585938 185.535156 C 244.460938 185.582031 244.449219 185.695312 244.421875 185.789062 Z M 239.9375 185.144531 C 239.921875 186.574219 239.722656 187.992188 239.695312 189.421875 C 239.691406 189.742188 239.710938 190.0625 239.726562 190.386719 C 239.734375 190.480469 239.765625 190.589844 239.886719 190.59375 C 240.007812 190.59375 240.046875 190.492188 240.058594 190.394531 C 240.078125 190.277344 240.082031 190.15625 240.082031 190.039062 C 240.074219 188.503906 240.140625 186.972656 240.210938 185.441406 C 240.226562 185.113281 240.179688 184.800781 240.078125 184.398438 C 239.964844 184.703125 239.9375 184.925781 239.9375 185.144531 Z M 227.050781 189.589844 C 226.953125 189.675781 227.0625 189.769531 227.109375 189.839844 C 227.207031 189.992188 227.316406 190.144531 227.441406 190.273438 C 228.175781 191.039062 228.859375 191.855469 229.527344 192.683594 C 229.808594 193.03125 230.125 193.355469 230.4375 193.679688 C 230.527344 193.773438 230.652344 193.902344 230.796875 193.769531 C 230.949219 193.636719 230.84375 193.492188 230.75 193.375 C 230.660156 193.257812 230.554688 193.144531 230.445312 193.042969 C 229.65625 192.3125 228.921875 191.535156 228.242188 190.703125 C 227.941406 190.335938 227.632812 189.980469 227.261719 189.65625 C 227.191406 189.65625 227.132812 189.515625 227.050781 189.589844 Z M 256.539062 209.945312 C 256.488281 209.910156 256.4375 209.863281 256.382812 209.839844 C 255.199219 209.277344 254.019531 208.714844 252.835938 208.15625 C 252.484375 207.992188 252.140625 207.808594 251.757812 207.742188 C 251.636719 207.722656 251.46875 207.671875 251.417969 207.832031 C 251.367188 207.992188 251.535156 208.042969 251.644531 208.09375 C 252.738281 208.597656 253.839844 209.074219 254.972656 209.476562 C 255.484375 209.65625 256 209.824219 256.515625 210 C 256.523438 209.980469 256.53125 209.960938 256.539062 209.945312 Z M 257.148438 205.027344 C 255.800781 204.847656 254.453125 204.667969 253.101562 204.5 C 252.871094 204.472656 252.632812 204.488281 252.398438 204.488281 C 252.296875 204.488281 252.1875 204.503906 252.171875 204.621094 C 252.148438 204.765625 252.269531 204.792969 252.375 204.824219 C 252.4375 204.839844 252.5 204.84375 252.5625 204.855469 C 254.058594 205.085938 255.570312 205.128906 257.078125 205.207031 C 257.199219 205.210938 257.335938 205.234375 257.445312 205.128906 C 257.367188 205.027344 257.25 205.042969 257.148438 205.027344 Z M 225.8125 188.3125 C 225.699219 188.480469 225.746094 188.640625 225.90625 188.757812 C 226.046875 188.859375 226.195312 188.847656 226.296875 188.699219 C 226.410156 188.527344 226.347656 188.375 226.214844 188.246094 C 226.058594 188.15625 225.914062 188.167969 225.8125 188.3125 Z M 229.851562 184.738281 C 229.707031 184.644531 229.550781 184.671875 229.460938 184.820312 C 229.359375 184.976562 229.398438 185.136719 229.554688 185.242188 C 229.707031 185.339844 229.839844 185.292969 229.953125 185.152344 C 230.035156 184.992188 230.011719 184.839844 229.851562 184.738281 Z M 255.132812 189.675781 C 254.992188 189.582031 254.835938 189.636719 254.738281 189.761719 C 254.621094 189.90625 254.625 190.066406 254.78125 190.179688 C 254.921875 190.28125 255.0625 190.226562 255.179688 190.089844 C 255.246094 189.949219 255.304688 189.789062 255.132812 189.675781 Z M 259.601562 210.808594 C 259.445312 210.71875 259.289062 210.726562 259.1875 210.886719 C 259.089844 211.042969 259.148438 211.179688 259.296875 211.265625 C 259.453125 211.359375 259.597656 211.34375 259.722656 211.179688 C 259.792969 211.027344 259.753906 210.894531 259.601562 210.808594 Z M 256.480469 188.621094 C 256.308594 188.523438 256.144531 188.574219 256.039062 188.738281 C 255.945312 188.871094 255.980469 189.011719 256.113281 189.097656 C 256.28125 189.207031 256.414062 189.125 256.53125 188.96875 C 256.589844 188.851562 256.632812 188.710938 256.480469 188.621094 Z M 258.976562 205.332031 C 259.066406 205.195312 259.03125 205.0625 258.894531 204.972656 C 258.75 204.878906 258.601562 204.886719 258.507812 205.042969 C 258.421875 205.179688 258.484375 205.308594 258.605469 205.402344 C 258.75 205.472656 258.882812 205.46875 258.976562 205.332031 Z M 245.15625 182.984375 C 245.0625 183.113281 245.066406 183.253906 245.195312 183.355469 C 245.332031 183.460938 245.476562 183.445312 245.585938 183.304688 C 245.699219 183.164062 245.671875 183.027344 245.539062 182.898438 C 245.398438 182.828125 245.257812 182.839844 245.15625 182.984375 Z M 239.835938 183.136719 C 239.738281 183.289062 239.777344 183.429688 239.921875 183.523438 C 240.046875 183.609375 240.171875 183.574219 240.253906 183.449219 C 240.347656 183.300781 240.304688 183.167969 240.171875 183.0625 C 240.039062 182.996094 239.917969 183.011719 239.835938 183.136719 Z M 257.679688 210.320312 C 257.597656 210.441406 257.621094 210.566406 257.742188 210.652344 C 257.875 210.746094 258.011719 210.726562 258.109375 210.601562 C 258.207031 210.476562 258.148438 210.363281 258.039062 210.265625 C 257.910156 210.1875 257.777344 210.179688 257.679688 210.320312 Z M 225.109375 187.109375 C 224.980469 187.035156 224.855469 187.0625 224.78125 187.195312 C 224.707031 187.328125 224.757812 187.441406 224.878906 187.523438 C 225.003906 187.605469 225.121094 187.585938 225.210938 187.464844 C 225.28125 187.316406 225.253906 187.191406 225.109375 187.109375 Z M 260.375 205.140625 C 260.238281 205.050781 260.101562 205.070312 260.015625 205.214844 C 259.945312 205.332031 259.984375 205.445312 260.101562 205.519531 C 260.230469 205.601562 260.34375 205.566406 260.4375 205.453125 C 260.503906 205.328125 260.492188 205.214844 260.375 205.140625 Z M 245.066406 184.195312 C 244.9375 184.117188 244.816406 184.148438 244.734375 184.273438 C 244.660156 184.390625 244.683594 184.503906 244.796875 184.582031 C 244.921875 184.664062 245.035156 184.640625 245.144531 184.519531 C 245.199219 184.398438 245.195312 184.277344 245.066406 184.195312 Z M 257.78125 193.933594 C 257.667969 193.859375 257.554688 193.867188 257.46875 193.980469 C 257.382812 194.089844 257.394531 194.207031 257.503906 194.289062 C 257.625 194.382812 257.742188 194.351562 257.851562 194.234375 C 257.90625 194.121094 257.898438 194.011719 257.78125 193.933594 Z M 257.78125 193.933594 " fill-opacity="1" fill-rule="nonzero"/><path fill="#ae7b37" d="M 268.390625 197.722656 C 268.101562 197.910156 267.816406 197.964844 267.539062 198.019531 C 265.9375 198.339844 264.339844 198.660156 262.730469 198.9375 C 261.117188 199.21875 259.515625 199.59375 257.902344 199.894531 C 256.054688 200.238281 254.28125 200.894531 252.421875 201.179688 C 252.253906 201.203125 252.003906 201.328125 251.949219 201.09375 C 251.898438 200.875 252.171875 200.828125 252.335938 200.789062 C 253.507812 200.523438 254.679688 200.257812 255.859375 200.023438 C 257.6875 199.660156 259.515625 199.289062 261.335938 198.867188 C 262.515625 198.589844 263.71875 198.410156 264.910156 198.203125 C 265.882812 198.03125 266.855469 197.875 267.832031 197.71875 C 268 197.691406 268.167969 197.636719 268.390625 197.722656 Z M 233.601562 175.953125 C 233.761719 176.886719 233.925781 177.816406 234.082031 178.75 C 234.652344 182.117188 235.492188 185.429688 236.121094 188.789062 C 236.238281 189.410156 236.402344 190.023438 236.617188 190.621094 C 236.652344 190.71875 236.6875 190.851562 236.824219 190.828125 C 236.988281 190.800781 236.960938 190.648438 236.945312 190.539062 C 236.898438 190.230469 236.855469 189.917969 236.769531 189.621094 C 235.761719 186.136719 235.328125 182.53125 234.480469 179.011719 C 234.21875 177.917969 234.015625 176.808594 233.640625 175.695312 C 233.558594 175.8125 233.589844 175.886719 233.601562 175.953125 Z M 263.421875 219.40625 C 262.152344 218.488281 260.890625 217.558594 259.609375 216.65625 C 258.34375 215.765625 257.011719 214.976562 255.667969 214.214844 C 254.4375 213.511719 253.285156 212.679688 252.097656 211.90625 C 251.503906 211.519531 250.902344 211.148438 250.300781 210.777344 C 250.199219 210.714844 250.054688 210.574219 249.960938 210.695312 C 249.84375 210.851562 250.054688 210.9375 250.144531 211.015625 C 250.449219 211.285156 250.800781 211.496094 251.15625 211.695312 C 252.757812 212.578125 254.289062 213.5625 255.78125 214.617188 C 258.203125 216.324219 260.734375 217.871094 263.21875 219.484375 C 263.324219 219.554688 263.425781 219.640625 263.582031 219.621094 C 263.566406 219.503906 263.488281 219.453125 263.421875 219.40625 Z M 255.894531 178.742188 C 255.152344 179.714844 254.445312 180.714844 253.761719 181.730469 C 252.390625 183.757812 251.179688 185.886719 249.828125 187.925781 C 248.859375 189.386719 247.816406 190.789062 246.78125 192.203125 C 246.667969 192.355469 246.539062 192.507812 246.511719 192.707031 C 246.5 192.773438 246.496094 192.839844 246.5625 192.878906 C 246.628906 192.917969 246.6875 192.882812 246.734375 192.835938 C 246.796875 192.777344 246.855469 192.714844 246.90625 192.644531 C 247.488281 191.820312 248.078125 191.003906 248.648438 190.171875 C 249.585938 188.796875 250.449219 187.375 251.335938 185.96875 C 252.335938 184.390625 253.394531 182.851562 254.421875 181.292969 C 255.015625 180.386719 255.648438 179.507812 256.175781 178.511719 C 256.019531 178.566406 255.960938 178.660156 255.894531 178.742188 Z M 265.09375 209.058594 C 261.753906 208.261719 258.414062 207.460938 255.070312 206.675781 C 254.171875 206.46875 253.261719 206.316406 252.355469 206.144531 C 252.222656 206.117188 252.042969 206.0625 252 206.25 C 251.960938 206.429688 252.148438 206.429688 252.261719 206.464844 C 252.691406 206.597656 253.125 206.722656 253.570312 206.8125 C 257.171875 207.511719 260.753906 208.320312 264.339844 209.105469 C 264.796875 209.203125 265.257812 209.285156 265.726562 209.289062 C 265.535156 209.144531 265.308594 209.109375 265.09375 209.058594 Z M 216.570312 187.957031 C 218.09375 189.054688 219.605469 190.167969 221.132812 191.261719 C 223.117188 192.679688 225.164062 194.003906 227.070312 195.523438 C 227.453125 195.832031 227.875 196.097656 228.332031 196.292969 C 228.441406 196.339844 228.589844 196.433594 228.679688 196.289062 C 228.769531 196.144531 228.628906 196.042969 228.527344 195.980469 C 227.878906 195.558594 227.277344 195.066406 226.613281 194.675781 C 225.582031 194.070312 224.578125 193.425781 223.636719 192.695312 C 221.667969 191.164062 219.632812 189.734375 217.53125 188.398438 C 217.1875 188.179688 216.839844 187.941406 216.429688 187.839844 C 216.476562 187.878906 216.519531 187.921875 216.570312 187.957031 Z M 243.808594 178.253906 C 243.476562 180.339844 243.050781 182.414062 242.636719 184.484375 C 242.277344 186.285156 241.875 188.074219 241.5 189.871094 C 241.449219 190.101562 241.433594 190.339844 241.410156 190.574219 C 241.398438 190.660156 241.40625 190.753906 241.511719 190.785156 C 241.621094 190.8125 241.695312 190.746094 241.734375 190.648438 C 241.765625 190.570312 241.792969 190.484375 241.808594 190.402344 C 241.890625 189.957031 241.980469 189.515625 242.042969 189.070312 C 242.375 186.785156 242.816406 184.523438 243.382812 182.285156 C 243.71875 180.953125 244.019531 179.609375 244.078125 178.230469 C 244.085938 178.0625 244.117188 177.886719 244.003906 177.714844 C 243.851562 177.871094 243.839844 178.070312 243.808594 178.253906 Z M 224.816406 182.636719 C 226.019531 184.308594 227.234375 185.972656 228.429688 187.652344 C 229.425781 189.050781 230.289062 190.539062 231.242188 191.964844 C 231.425781 192.242188 231.625 192.507812 231.851562 192.753906 C 231.917969 192.828125 232.007812 192.886719 232.105469 192.820312 C 232.222656 192.742188 232.191406 192.636719 232.128906 192.535156 C 232.09375 192.480469 232.054688 192.429688 232.015625 192.378906 C 230.789062 190.789062 229.648438 189.140625 228.554688 187.457031 C 227.289062 185.503906 225.992188 183.570312 224.496094 181.777344 C 224.386719 181.648438 224.296875 181.496094 224.050781 181.398438 C 224.28125 181.890625 224.546875 182.265625 224.816406 182.636719 Z M 261.1875 188.503906 C 260.542969 188.890625 259.933594 189.328125 259.324219 189.765625 C 257.433594 191.128906 255.554688 192.5 253.664062 193.855469 C 252.5625 194.640625 251.445312 195.398438 250.34375 196.183594 C 250.214844 196.273438 249.953125 196.390625 250.121094 196.601562 C 250.273438 196.796875 250.453125 196.597656 250.585938 196.492188 C 251.328125 195.925781 252.046875 195.324219 252.800781 194.777344 C 255.199219 193.042969 257.613281 191.328125 260.015625 189.601562 C 260.554688 189.214844 261.109375 188.847656 261.605469 188.359375 C 261.414062 188.335938 261.304688 188.433594 261.1875 188.503906 Z M 259.414062 196.347656 C 257.71875 196.929688 256.070312 197.636719 254.351562 198.15625 C 253.519531 198.40625 252.710938 198.734375 251.894531 199.035156 C 251.730469 199.09375 251.441406 199.140625 251.519531 199.382812 C 251.605469 199.644531 251.855469 199.480469 252.023438 199.429688 C 252.339844 199.328125 252.648438 199.207031 252.953125 199.074219 C 253.988281 198.625 255.019531 198.160156 256.097656 197.832031 C 257.464844 197.417969 258.800781 196.914062 260.132812 196.398438 C 260.4375 196.28125 260.757812 196.179688 260.992188 195.917969 C 260.441406 195.984375 259.929688 196.171875 259.414062 196.347656 Z M 222.511719 189.082031 C 224.503906 190.746094 226.488281 192.417969 228.371094 194.203125 C 228.664062 194.484375 228.941406 194.789062 229.304688 194.988281 C 229.40625 195.042969 229.550781 195.140625 229.644531 194.984375 C 229.722656 194.855469 229.597656 194.765625 229.515625 194.691406 C 229.132812 194.34375 228.761719 193.988281 228.363281 193.664062 C 226.910156 192.476562 225.511719 191.226562 224.085938 190.003906 C 223.375 189.398438 222.589844 188.910156 221.78125 188.449219 C 222.023438 188.664062 222.265625 188.878906 222.511719 189.082031 Z M 262.78125 201.636719 C 262.695312 201.632812 262.609375 201.628906 262.527344 201.632812 C 261.1875 201.738281 259.851562 201.839844 258.511719 201.953125 C 257.699219 202.019531 256.890625 202.117188 256.074219 202.175781 C 255.121094 202.25 254.167969 202.292969 253.214844 202.355469 C 252.925781 202.375 252.636719 202.417969 252.359375 202.511719 C 252.265625 202.546875 252.171875 202.585938 252.191406 202.710938 C 252.210938 202.832031 252.3125 202.851562 252.410156 202.855469 C 252.476562 202.859375 252.539062 202.855469 252.605469 202.84375 C 253.125 202.777344 253.644531 202.691406 254.167969 202.636719 C 255.4375 202.503906 256.707031 202.335938 257.984375 202.265625 C 259.335938 202.195312 260.679688 202.070312 262.019531 201.875 C 262.285156 201.835938 262.550781 201.824219 262.816406 201.800781 C 262.804688 201.746094 262.792969 201.691406 262.78125 201.636719 Z M 231.765625 182.386719 C 232.710938 185.214844 233.871094 187.964844 234.777344 190.808594 C 234.816406 190.925781 234.882812 191.039062 234.949219 191.148438 C 235 191.234375 235.074219 191.316406 235.183594 191.257812 C 235.300781 191.195312 235.25 191.09375 235.214844 191.003906 C 235.082031 190.652344 234.949219 190.300781 234.808594 189.953125 C 234.027344 188.023438 233.457031 186.019531 232.671875 184.089844 C 232.390625 183.398438 232.164062 182.683594 231.714844 182.015625 C 231.679688 182.191406 231.734375 182.289062 231.765625 182.386719 Z M 237.074219 181.867188 C 237.175781 183.644531 237.492188 185.402344 237.636719 187.175781 C 237.71875 188.179688 237.816406 189.183594 237.925781 190.1875 C 237.941406 190.347656 237.929688 190.632812 238.175781 190.59375 C 238.402344 190.558594 238.285156 190.304688 238.265625 190.152344 C 238.070312 188.511719 237.773438 186.878906 237.71875 185.226562 C 237.675781 183.96875 237.472656 182.757812 237.089844 181.503906 C 237.019531 181.664062 237.066406 181.765625 237.074219 181.867188 Z M 253.125 187.6875 C 252.925781 187.898438 252.710938 188.097656 252.535156 188.324219 C 251.171875 190.066406 249.691406 191.707031 248.171875 193.308594 C 248.082031 193.402344 248.007812 193.507812 247.941406 193.617188 C 247.890625 193.691406 247.871094 193.78125 247.953125 193.851562 C 248.035156 193.917969 248.117188 193.882812 248.183594 193.824219 C 248.34375 193.679688 248.507812 193.539062 248.648438 193.375 C 249.988281 191.8125 251.324219 190.25 252.609375 188.640625 C 252.84375 188.34375 253.058594 188.027344 253.246094 187.648438 C 253.175781 187.671875 253.140625 187.671875 253.125 187.6875 Z M 247.898438 185.113281 C 247.429688 186.03125 247.0625 186.992188 246.613281 187.917969 C 246.109375 188.972656 245.574219 190.011719 245.058594 191.058594 C 244.984375 191.203125 244.921875 191.351562 244.871094 191.503906 C 244.832031 191.621094 244.765625 191.769531 244.917969 191.847656 C 245.078125 191.929688 245.144531 191.78125 245.210938 191.675781 C 245.269531 191.585938 245.3125 191.484375 245.355469 191.386719 C 246.101562 189.726562 246.847656 188.066406 247.582031 186.398438 C 247.792969 185.925781 248.035156 185.457031 248.109375 184.898438 C 247.953125 184.949219 247.9375 185.039062 247.898438 185.113281 Z M 230.433594 186.757812 C 230.800781 187.449219 231.175781 188.136719 231.570312 188.8125 C 232.09375 189.703125 232.417969 190.6875 232.960938 191.566406 C 233.050781 191.710938 233.132812 191.867188 233.28125 191.964844 C 233.34375 192.007812 233.414062 192.046875 233.484375 191.988281 C 233.550781 191.9375 233.558594 191.859375 233.527344 191.785156 C 233.445312 191.597656 233.371094 191.40625 233.273438 191.230469 C 232.417969 189.707031 231.5625 188.183594 230.699219 186.664062 C 230.585938 186.464844 230.484375 186.25 230.25 186.109375 C 230.191406 186.378906 230.332031 186.570312 230.433594 186.757812 Z M 253.632812 190.957031 C 253.09375 191.417969 252.535156 191.855469 252.027344 192.347656 C 251.1875 193.164062 250.226562 193.84375 249.453125 194.726562 C 249.332031 194.867188 249.0625 195.039062 249.238281 195.226562 C 249.445312 195.449219 249.636719 195.175781 249.757812 195.035156 C 250.691406 193.945312 251.8125 193.054688 252.847656 192.074219 C 253.246094 191.695312 253.59375 191.269531 253.886719 190.785156 C 253.800781 190.84375 253.710938 190.894531 253.632812 190.957031 Z M 259.207031 213.679688 C 258.78125 213.457031 258.363281 213.214844 257.929688 213.007812 C 256.34375 212.265625 254.789062 211.46875 253.269531 210.601562 C 252.578125 210.210938 251.890625 209.8125 251.148438 209.515625 C 251.027344 209.464844 250.847656 209.359375 250.773438 209.507812 C 250.679688 209.6875 250.90625 209.71875 251.015625 209.773438 C 251.886719 210.210938 252.773438 210.621094 253.636719 211.074219 C 255.121094 211.847656 256.613281 212.613281 258.128906 213.324219 C 258.46875 213.484375 258.832031 213.601562 259.183594 213.742188 C 259.191406 213.722656 259.199219 213.699219 259.207031 213.679688 Z M 256.28125 194.789062 C 255.25 195.289062 254.277344 195.902344 253.234375 196.386719 C 252.59375 196.683594 251.984375 197.046875 251.359375 197.382812 C 251.226562 197.453125 251.097656 197.53125 251.003906 197.652344 C 250.953125 197.722656 250.890625 197.796875 250.960938 197.882812 C 251.015625 197.957031 251.101562 197.929688 251.167969 197.898438 C 251.398438 197.789062 251.636719 197.683594 251.855469 197.550781 C 253.039062 196.859375 254.210938 196.144531 255.460938 195.566406 C 255.886719 195.371094 256.316406 195.164062 256.679688 194.855469 C 256.738281 194.808594 256.851562 194.769531 256.734375 194.65625 C 256.570312 194.644531 256.425781 194.71875 256.28125 194.789062 Z M 244.421875 185.789062 C 243.929688 187.332031 243.441406 188.871094 242.953125 190.414062 C 242.902344 190.578125 242.851562 190.742188 242.859375 190.917969 C 242.863281 191.023438 242.90625 191.109375 243.019531 191.128906 C 243.117188 191.144531 243.179688 191.078125 243.21875 190.996094 C 243.269531 190.878906 243.3125 190.757812 243.351562 190.632812 C 243.8125 189.074219 244.183594 187.484375 244.578125 185.90625 C 244.605469 185.789062 244.671875 185.664062 244.585938 185.535156 C 244.460938 185.582031 244.449219 185.695312 244.421875 185.789062 Z M 239.9375 185.144531 C 239.921875 186.574219 239.722656 187.992188 239.695312 189.421875 C 239.691406 189.742188 239.710938 190.0625 239.726562 190.386719 C 239.734375 190.480469 239.765625 190.589844 239.886719 190.59375 C 240.007812 190.59375 240.046875 190.492188 240.058594 190.394531 C 240.078125 190.277344 240.082031 190.15625 240.082031 190.039062 C 240.074219 188.503906 240.140625 186.972656 240.210938 185.441406 C 240.226562 185.113281 240.179688 184.800781 240.078125 184.398438 C 239.964844 184.703125 239.9375 184.925781 239.9375 185.144531 Z M 227.050781 189.589844 C 226.953125 189.675781 227.0625 189.769531 227.109375 189.839844 C 227.207031 189.992188 227.316406 190.144531 227.441406 190.273438 C 228.175781 191.039062 228.859375 191.855469 229.527344 192.683594 C 229.808594 193.03125 230.125 193.355469 230.4375 193.679688 C 230.527344 193.773438 230.652344 193.902344 230.796875 193.769531 C 230.949219 193.636719 230.84375 193.492188 230.75 193.375 C 230.660156 193.257812 230.554688 193.144531 230.445312 193.042969 C 229.65625 192.3125 228.921875 191.535156 228.242188 190.703125 C 227.941406 190.335938 227.632812 189.980469 227.261719 189.65625 C 227.191406 189.65625 227.132812 189.515625 227.050781 189.589844 Z M 256.539062 209.945312 C 256.488281 209.910156 256.4375 209.863281 256.382812 209.839844 C 255.199219 209.277344 254.019531 208.714844 252.835938 208.15625 C 252.484375 207.992188 252.140625 207.808594 251.757812 207.742188 C 251.636719 207.722656 251.46875 207.671875 251.417969 207.832031 C 251.367188 207.992188 251.535156 208.042969 251.644531 208.09375 C 252.738281 208.597656 253.839844 209.074219 254.972656 209.476562 C 255.484375 209.65625 256 209.824219 256.515625 210 C 256.523438 209.980469 256.53125 209.960938 256.539062 209.945312 Z M 257.148438 205.027344 C 255.800781 204.847656 254.453125 204.667969 253.101562 204.5 C 252.871094 204.472656 252.632812 204.488281 252.398438 204.488281 C 252.296875 204.488281 252.1875 204.503906 252.171875 204.621094 C 252.148438 204.765625 252.269531 204.792969 252.375 204.824219 C 252.4375 204.839844 252.5 204.84375 252.5625 204.855469 C 254.058594 205.085938 255.570312 205.128906 257.078125 205.207031 C 257.199219 205.210938 257.335938 205.234375 257.445312 205.128906 C 257.367188 205.027344 257.25 205.042969 257.148438 205.027344 Z M 225.8125 188.3125 C 225.699219 188.480469 225.746094 188.640625 225.90625 188.757812 C 226.046875 188.859375 226.195312 188.847656 226.296875 188.699219 C 226.410156 188.527344 226.347656 188.375 226.214844 188.246094 C 226.058594 188.15625 225.914062 188.167969 225.8125 188.3125 Z M 229.851562 184.738281 C 229.707031 184.644531 229.550781 184.671875 229.460938 184.820312 C 229.359375 184.976562 229.398438 185.136719 229.554688 185.242188 C 229.707031 185.339844 229.839844 185.292969 229.953125 185.152344 C 230.035156 184.992188 230.011719 184.839844 229.851562 184.738281 Z M 255.132812 189.675781 C 254.992188 189.582031 254.835938 189.636719 254.738281 189.761719 C 254.621094 189.90625 254.625 190.066406 254.78125 190.179688 C 254.921875 190.28125 255.0625 190.226562 255.179688 190.089844 C 255.246094 189.949219 255.304688 189.789062 255.132812 189.675781 Z M 259.601562 210.808594 C 259.445312 210.71875 259.289062 210.726562 259.1875 210.886719 C 259.089844 211.042969 259.148438 211.179688 259.296875 211.265625 C 259.453125 211.359375 259.597656 211.34375 259.722656 211.179688 C 259.792969 211.027344 259.753906 210.894531 259.601562 210.808594 Z M 256.480469 188.621094 C 256.308594 188.523438 256.144531 188.574219 256.039062 188.738281 C 255.945312 188.871094 255.980469 189.011719 256.113281 189.097656 C 256.28125 189.207031 256.414062 189.125 256.53125 188.96875 C 256.589844 188.851562 256.632812 188.710938 256.480469 188.621094 Z M 258.976562 205.332031 C 259.066406 205.195312 259.03125 205.0625 258.894531 204.972656 C 258.75 204.878906 258.601562 204.886719 258.507812 205.042969 C 258.421875 205.179688 258.484375 205.308594 258.605469 205.402344 C 258.75 205.472656 258.882812 205.46875 258.976562 205.332031 Z M 245.15625 182.984375 C 245.0625 183.113281 245.066406 183.253906 245.195312 183.355469 C 245.332031 183.460938 245.476562 183.445312 245.585938 183.304688 C 245.699219 183.164062 245.671875 183.027344 245.539062 182.898438 C 245.398438 182.828125 245.257812 182.839844 245.15625 182.984375 Z M 239.835938 183.136719 C 239.738281 183.289062 239.777344 183.429688 239.921875 183.523438 C 240.046875 183.609375 240.171875 183.574219 240.253906 183.449219 C 240.347656 183.300781 240.304688 183.167969 240.171875 183.0625 C 240.039062 182.996094 239.917969 183.011719 239.835938 183.136719 Z M 257.679688 210.320312 C 257.597656 210.441406 257.621094 210.566406 257.742188 210.652344 C 257.875 210.746094 258.011719 210.726562 258.109375 210.601562 C 258.207031 210.476562 258.148438 210.363281 258.039062 210.265625 C 257.910156 210.1875 257.777344 210.179688 257.679688 210.320312 Z M 225.109375 187.109375 C 224.980469 187.035156 224.855469 187.0625 224.78125 187.195312 C 224.707031 187.328125 224.757812 187.441406 224.878906 187.523438 C 225.003906 187.605469 225.121094 187.585938 225.210938 187.464844 C 225.28125 187.316406 225.253906 187.191406 225.109375 187.109375 Z M 260.375 205.140625 C 260.238281 205.050781 260.101562 205.070312 260.015625 205.214844 C 259.945312 205.332031 259.984375 205.445312 260.101562 205.519531 C 260.230469 205.601562 260.34375 205.566406 260.4375 205.453125 C 260.503906 205.328125 260.492188 205.214844 260.375 205.140625 Z M 245.066406 184.195312 C 244.9375 184.117188 244.816406 184.148438 244.734375 184.273438 C 244.660156 184.390625 244.683594 184.503906 244.796875 184.582031 C 244.921875 184.664062 245.035156 184.640625 245.144531 184.519531 C 245.199219 184.398438 245.195312 184.277344 245.066406 184.195312 Z M 257.78125 193.933594 C 257.667969 193.859375 257.554688 193.867188 257.46875 193.980469 C 257.382812 194.089844 257.394531 194.207031 257.503906 194.289062 C 257.625 194.382812 257.742188 194.351562 257.851562 194.234375 C 257.90625 194.121094 257.898438 194.011719 257.78125 193.933594 Z M 257.78125 193.933594 " fill-opacity="1" fill-rule="nonzero"/></g></g></g><g fill="#2b2b2b" fill-opacity="1"><g transform="translate(125.74454, 214.638337)"><g/></g></g><g fill="#2b2b2b" fill-opacity="1"><g transform="translate(136.88143, 214.638337)"><g><path d="M 18.957031 0.261719 L 3.535156 -19.808594 L 3.535156 -5.46875 C 3.535156 -4.222656 3.625 -3.261719 3.796875 -2.585938 C 3.972656 -1.910156 4.230469 -1.414062 4.566406 -1.097656 C 4.90625 -0.78125 5.316406 -0.554688 5.796875 -0.425781 L 5.796875 0 L 1.703125 0 L 1.703125 -0.425781 C 2.203125 -0.578125 2.546875 -0.90625 2.734375 -1.40625 C 2.917969 -1.910156 3.011719 -2.828125 3.011719 -4.15625 L 3.011719 -18.761719 C 3.011719 -20.113281 2.890625 -21.035156 2.652344 -21.527344 C 2.410156 -22.019531 1.964844 -22.339844 1.308594 -22.492188 L 1.308594 -22.917969 L 4.519531 -22.917969 L 18.824219 -4.386719 L 18.824219 -17.449219 C 18.824219 -18.695312 18.738281 -19.660156 18.5625 -20.347656 C 18.390625 -21.035156 18.136719 -21.53125 17.8125 -21.839844 C 17.484375 -22.144531 17.070312 -22.363281 16.566406 -22.492188 L 16.566406 -22.917969 L 20.691406 -22.917969 L 20.691406 -22.492188 C 20.191406 -22.339844 19.847656 -22.019531 19.660156 -21.527344 C 19.476562 -21.035156 19.382812 -20.113281 19.382812 -18.761719 L 19.382812 0.261719 Z M 18.957031 0.261719 "/></g></g></g><g fill="#2b2b2b" fill-opacity="1"><g transform="translate(163.133786, 214.638337)"><g><path d="M 1.667969 0 L 1.667969 -0.425781 C 2.171875 -0.578125 2.515625 -0.90625 2.699219 -1.40625 C 2.886719 -1.910156 2.980469 -2.828125 2.980469 -4.15625 L 2.980469 -18.761719 C 2.980469 -20.113281 2.886719 -21.035156 2.699219 -21.527344 C 2.515625 -22.019531 2.171875 -22.339844 1.667969 -22.492188 L 1.667969 -22.917969 L 6.972656 -22.917969 L 6.972656 -22.492188 C 6.472656 -22.339844 6.128906 -22.019531 5.941406 -21.527344 C 5.757812 -21.035156 5.664062 -20.113281 5.664062 -18.761719 L 5.664062 -4.15625 C 5.664062 -2.828125 5.757812 -1.910156 5.941406 -1.40625 C 6.128906 -0.90625 6.472656 -0.578125 6.972656 -0.425781 L 6.972656 0 Z M 1.667969 0 "/></g></g></g><g fill="#2b2b2b" fill-opacity="1"><g transform="translate(176.031902, 214.638337)"><g><path d="M 1.667969 0 L 1.667969 -0.425781 C 2.171875 -0.578125 2.515625 -0.90625 2.699219 -1.40625 C 2.886719 -1.910156 2.980469 -2.828125 2.980469 -4.15625 L 2.980469 -18.761719 C 2.980469 -20.113281 2.886719 -21.035156 2.699219 -21.527344 C 2.515625 -22.019531 2.171875 -22.339844 1.667969 -22.492188 L 1.667969 -22.917969 L 6.972656 -22.917969 L 6.972656 -22.492188 C 6.472656 -22.339844 6.128906 -22.019531 5.941406 -21.527344 C 5.757812 -21.035156 5.664062 -20.113281 5.664062 -18.761719 L 5.664062 -10.445312 L 14.242188 -19.21875 C 15.269531 -20.289062 15.863281 -21.101562 16.027344 -21.65625 C 16.191406 -22.214844 15.957031 -22.535156 15.324219 -22.625 L 15.324219 -22.917969 L 19.875 -22.917969 L 19.875 -22.492188 C 19.351562 -22.339844 18.738281 -22.117188 18.039062 -21.820312 C 17.339844 -21.527344 16.523438 -20.898438 15.585938 -19.9375 L 8.609375 -12.800781 L 9.363281 -12.835938 C 10.585938 -12.921875 11.585938 -12.863281 12.359375 -12.652344 C 13.132812 -12.445312 13.777344 -12.070312 14.292969 -11.523438 C 14.804688 -10.980469 15.285156 -10.238281 15.730469 -9.296875 C 16.179688 -8.359375 16.675781 -7.191406 17.222656 -5.796875 C 17.789062 -4.398438 18.257812 -3.3125 18.628906 -2.539062 C 19 -1.761719 19.34375 -1.222656 19.660156 -0.917969 C 19.976562 -0.609375 20.308594 -0.457031 20.660156 -0.457031 C 20.769531 -0.457031 20.867188 -0.457031 20.953125 -0.457031 C 21.042969 -0.457031 21.128906 -0.46875 21.214844 -0.492188 L 21.214844 -0.0664062 C 20.933594 0.0234375 20.621094 0.0820312 20.28125 0.113281 C 19.945312 0.148438 19.601562 0.164062 19.25 0.164062 C 18.464844 0.164062 17.832031 -0.00390625 17.351562 -0.34375 C 16.871094 -0.683594 16.441406 -1.238281 16.058594 -2.011719 C 15.675781 -2.789062 15.222656 -3.808594 14.699219 -5.074219 C 14.15625 -6.40625 13.691406 -7.535156 13.308594 -8.464844 C 12.925781 -9.390625 12.539062 -10.140625 12.148438 -10.707031 C 11.753906 -11.273438 11.296875 -11.683594 10.773438 -11.933594 C 10.246094 -12.183594 9.570312 -12.300781 8.742188 -12.277344 L 8.085938 -12.277344 L 5.664062 -9.789062 L 5.664062 -4.15625 C 5.664062 -2.828125 5.757812 -1.910156 5.941406 -1.40625 C 6.128906 -0.90625 6.472656 -0.578125 6.972656 -0.425781 L 6.972656 0 Z M 1.667969 0 "/></g></g></g><g fill="#2b2b2b" fill-opacity="1"><g transform="translate(201.236867, 214.638337)"><g><path d="M 1.667969 0 L 1.667969 -0.425781 C 2.171875 -0.578125 2.515625 -0.90625 2.699219 -1.40625 C 2.886719 -1.910156 2.980469 -2.828125 2.980469 -4.15625 L 2.980469 -18.761719 C 2.980469 -20.113281 2.886719 -21.035156 2.699219 -21.527344 C 2.515625 -22.019531 2.171875 -22.339844 1.667969 -22.492188 L 1.667969 -22.917969 L 6.972656 -22.917969 L 6.972656 -22.492188 C 6.472656 -22.339844 6.128906 -22.019531 5.941406 -21.527344 C 5.757812 -21.035156 5.664062 -20.113281 5.664062 -18.761719 L 5.664062 -10.445312 L 14.242188 -19.21875 C 15.269531 -20.289062 15.863281 -21.101562 16.027344 -21.65625 C 16.191406 -22.214844 15.957031 -22.535156 15.324219 -22.625 L 15.324219 -22.917969 L 19.875 -22.917969 L 19.875 -22.492188 C 19.351562 -22.339844 18.738281 -22.117188 18.039062 -21.820312 C 17.339844 -21.527344 16.523438 -20.898438 15.585938 -19.9375 L 8.609375 -12.800781 L 9.363281 -12.835938 C 10.585938 -12.921875 11.585938 -12.863281 12.359375 -12.652344 C 13.132812 -12.445312 13.777344 -12.070312 14.292969 -11.523438 C 14.804688 -10.980469 15.285156 -10.238281 15.730469 -9.296875 C 16.179688 -8.359375 16.675781 -7.191406 17.222656 -5.796875 C 17.789062 -4.398438 18.257812 -3.3125 18.628906 -2.539062 C 19 -1.761719 19.34375 -1.222656 19.660156 -0.917969 C 19.976562 -0.609375 20.308594 -0.457031 20.660156 -0.457031 C 20.769531 -0.457031 20.867188 -0.457031 20.953125 -0.457031 C 21.042969 -0.457031 21.128906 -0.46875 21.214844 -0.492188 L 21.214844 -0.0664062 C 20.933594 0.0234375 20.621094 0.0820312 20.28125 0.113281 C 19.945312 0.148438 19.601562 0.164062 19.25 0.164062 C 18.464844 0.164062 17.832031 -0.00390625 17.351562 -0.34375 C 16.871094 -0.683594 16.441406 -1.238281 16.058594 -2.011719 C 15.675781 -2.789062 15.222656 -3.808594 14.699219 -5.074219 C 14.15625 -6.40625 13.691406 -7.535156 13.308594 -8.464844 C 12.925781 -9.390625 12.539062 -10.140625 12.148438 -10.707031 C 11.753906 -11.273438 11.296875 -11.683594 10.773438 -11.933594 C 10.246094 -12.183594 9.570312 -12.300781 8.742188 -12.277344 L 8.085938 -12.277344 L 5.664062 -9.789062 L 5.664062 -4.15625 C 5.664062 -2.828125 5.757812 -1.910156 5.941406 -1.40625 C 6.128906 -0.90625 6.472656 -0.578125 6.972656 -0.425781 L 6.972656 0 Z M 1.667969 0 "/></g></g></g><g fill="#2b2b2b" fill-opacity="1"><g transform="translate(226.441832, 214.638337)"><g><path d="M 13.359375 0.328125 C 11.960938 0.328125 10.574219 0.09375 9.199219 -0.375 C 7.824219 -0.847656 6.570312 -1.566406 5.433594 -2.539062 C 4.300781 -3.507812 3.394531 -4.738281 2.71875 -6.222656 C 2.039062 -7.703125 1.703125 -9.460938 1.703125 -11.492188 C 1.703125 -13.738281 2.195312 -15.742188 3.175781 -17.5 C 4.15625 -19.257812 5.523438 -20.644531 7.269531 -21.65625 C 9.015625 -22.671875 11.042969 -23.179688 13.359375 -23.179688 C 14.734375 -23.179688 16.109375 -22.941406 17.484375 -22.460938 C 18.859375 -21.980469 20.109375 -21.253906 21.230469 -20.28125 C 22.355469 -19.3125 23.257812 -18.082031 23.933594 -16.597656 C 24.609375 -15.117188 24.949219 -13.367188 24.949219 -11.359375 C 24.949219 -9.332031 24.609375 -7.585938 23.933594 -6.121094 C 23.257812 -4.660156 22.351562 -3.449219 21.214844 -2.488281 C 20.082031 -1.527344 18.832031 -0.820312 17.46875 -0.359375 C 16.101562 0.0976562 14.734375 0.328125 13.359375 0.328125 Z M 4.320312 -13.390625 C 4.386719 -11.753906 4.6875 -10.164062 5.222656 -8.628906 C 5.757812 -7.089844 6.488281 -5.707031 7.414062 -4.484375 C 8.34375 -3.261719 9.429688 -2.292969 10.671875 -1.570312 C 11.917969 -0.851562 13.269531 -0.492188 14.734375 -0.492188 C 16.480469 -0.492188 17.929688 -0.875 19.085938 -1.636719 C 20.246094 -2.402344 21.101562 -3.441406 21.65625 -4.765625 C 22.214844 -6.085938 22.460938 -7.5625 22.394531 -9.199219 C 22.328125 -10.902344 22.027344 -12.546875 21.496094 -14.128906 C 20.960938 -15.710938 20.234375 -17.125 19.316406 -18.367188 C 18.398438 -19.613281 17.320312 -20.597656 16.074219 -21.332031 C 14.832031 -22.0625 13.476562 -22.425781 12.015625 -22.425781 C 10.355469 -22.425781 8.945312 -22.046875 7.777344 -21.28125 C 6.609375 -20.515625 5.722656 -19.457031 5.125 -18.105469 C 4.523438 -16.753906 4.257812 -15.179688 4.320312 -13.390625 Z M 4.320312 -13.390625 "/></g></g></g><g fill="#2b2b2b" fill-opacity="1"><g transform="translate(166.804184, 231.448886)"><g><path d="M 0.765625 0 L 0.765625 -0.195312 C 0.996094 -0.265625 1.152344 -0.414062 1.238281 -0.644531 C 1.324219 -0.875 1.363281 -1.296875 1.363281 -1.90625 L 1.363281 -8.59375 C 1.363281 -9.214844 1.324219 -9.636719 1.238281 -9.863281 C 1.152344 -10.085938 0.996094 -10.234375 0.765625 -10.304688 L 0.765625 -10.5 L 3.195312 -10.5 L 3.195312 -10.304688 C 2.964844 -10.234375 2.808594 -10.085938 2.722656 -9.863281 C 2.636719 -9.636719 2.59375 -9.214844 2.59375 -8.59375 L 2.59375 -5.683594 L 8.308594 -5.683594 L 8.308594 -8.59375 C 8.308594 -9.214844 8.265625 -9.636719 8.183594 -9.863281 C 8.097656 -10.085938 7.941406 -10.234375 7.710938 -10.304688 L 7.710938 -10.5 L 10.140625 -10.5 L 10.140625 -10.304688 C 9.910156 -10.234375 9.753906 -10.085938 9.667969 -9.863281 C 9.582031 -9.636719 9.539062 -9.214844 9.539062 -8.59375 L 9.539062 -1.90625 C 9.539062 -1.296875 9.582031 -0.875 9.667969 -0.644531 C 9.753906 -0.414062 9.910156 -0.265625 10.140625 -0.195312 L 10.140625 0 L 7.710938 0 L 7.710938 -0.195312 C 7.941406 -0.265625 8.097656 -0.414062 8.183594 -0.644531 C 8.265625 -0.875 8.308594 -1.296875 8.308594 -1.90625 L 8.308594 -5.445312 L 2.59375 -5.445312 L 2.59375 -1.90625 C 2.59375 -1.296875 2.636719 -0.875 2.722656 -0.644531 C 2.808594 -0.414062 2.964844 -0.265625 3.195312 -0.195312 L 3.195312 0 Z M 0.765625 0 "/></g></g></g><g fill="#2b2b2b" fill-opacity="1"><g transform="translate(179.644168, 231.448886)"><g><path d="M 6.121094 0.148438 C 5.480469 0.148438 4.84375 0.0429688 4.214844 -0.171875 C 3.585938 -0.386719 3.011719 -0.71875 2.488281 -1.164062 C 1.96875 -1.609375 1.554688 -2.171875 1.246094 -2.851562 C 0.933594 -3.53125 0.78125 -4.335938 0.78125 -5.265625 C 0.78125 -6.296875 1.003906 -7.210938 1.453125 -8.015625 C 1.90625 -8.824219 2.53125 -9.457031 3.328125 -9.921875 C 4.128906 -10.386719 5.058594 -10.621094 6.121094 -10.621094 C 6.75 -10.621094 7.378906 -10.511719 8.011719 -10.289062 C 8.640625 -10.070312 9.210938 -9.738281 9.726562 -9.292969 C 10.242188 -8.847656 10.65625 -8.285156 10.964844 -7.605469 C 11.273438 -6.925781 11.429688 -6.125 11.429688 -5.203125 C 11.429688 -4.273438 11.273438 -3.476562 10.964844 -2.804688 C 10.65625 -2.136719 10.238281 -1.578125 9.71875 -1.140625 C 9.199219 -0.699219 8.628906 -0.375 8.003906 -0.164062 C 7.378906 0.046875 6.75 0.148438 6.121094 0.148438 Z M 1.980469 -6.136719 C 2.011719 -5.386719 2.148438 -4.65625 2.390625 -3.953125 C 2.636719 -3.246094 2.972656 -2.613281 3.398438 -2.054688 C 3.824219 -1.496094 4.320312 -1.050781 4.890625 -0.71875 C 5.460938 -0.390625 6.078125 -0.226562 6.75 -0.226562 C 7.550781 -0.226562 8.214844 -0.398438 8.746094 -0.75 C 9.273438 -1.101562 9.667969 -1.578125 9.921875 -2.183594 C 10.175781 -2.789062 10.289062 -3.464844 10.261719 -4.214844 C 10.230469 -4.996094 10.09375 -5.746094 9.847656 -6.472656 C 9.601562 -7.199219 9.269531 -7.84375 8.851562 -8.414062 C 8.429688 -8.984375 7.933594 -9.4375 7.363281 -9.773438 C 6.796875 -10.109375 6.175781 -10.273438 5.503906 -10.273438 C 4.746094 -10.273438 4.097656 -10.101562 3.5625 -9.75 C 3.027344 -9.398438 2.621094 -8.914062 2.347656 -8.296875 C 2.074219 -7.675781 1.949219 -6.953125 1.980469 -6.136719 Z M 1.980469 -6.136719 "/></g></g></g><g fill="#2b2b2b" fill-opacity="1"><g transform="translate(193.039145, 231.448886)"><g><path d="M 2.984375 0 L 2.984375 -0.195312 C 3.214844 -0.265625 3.371094 -0.414062 3.457031 -0.644531 C 3.542969 -0.875 3.585938 -1.296875 3.585938 -1.90625 L 3.585938 -10.261719 L 2.851562 -10.261719 C 2.179688 -10.261719 1.671875 -10.15625 1.320312 -9.945312 C 0.96875 -9.734375 0.664062 -9.359375 0.40625 -8.820312 L 0.238281 -8.851562 L 0.328125 -10.5 L 8.054688 -10.5 L 8.144531 -8.851562 L 7.980469 -8.820312 C 7.730469 -9.359375 7.429688 -9.734375 7.078125 -9.945312 C 6.730469 -10.15625 6.214844 -10.261719 5.535156 -10.261719 L 4.828125 -10.261719 L 4.828125 -1.90625 C 4.828125 -1.296875 4.871094 -0.875 4.957031 -0.644531 C 5.042969 -0.414062 5.199219 -0.265625 5.429688 -0.195312 L 5.429688 0 Z M 2.984375 0 "/></g></g></g><g fill="#2b2b2b" fill-opacity="1"><g transform="translate(203.389135, 231.448886)"><g><path d="M 0.765625 0 L 0.765625 -0.195312 C 0.996094 -0.265625 1.152344 -0.414062 1.238281 -0.644531 C 1.324219 -0.875 1.363281 -1.296875 1.363281 -1.90625 L 1.363281 -8.59375 C 1.363281 -9.214844 1.324219 -9.636719 1.238281 -9.863281 C 1.152344 -10.085938 0.996094 -10.234375 0.765625 -10.304688 L 0.765625 -10.5 L 7.738281 -10.5 L 7.90625 -8.550781 L 7.738281 -8.503906 C 7.480469 -9.164062 7.117188 -9.625 6.652344 -9.886719 C 6.1875 -10.144531 5.570312 -10.273438 4.800781 -10.273438 L 2.59375 -10.273438 L 2.59375 -5.730469 L 4.515625 -5.730469 C 5.085938 -5.730469 5.527344 -5.765625 5.84375 -5.84375 C 6.15625 -5.917969 6.386719 -6.03125 6.53125 -6.1875 C 6.675781 -6.34375 6.78125 -6.53125 6.839844 -6.75 L 7.019531 -6.75 L 7.019531 -4.484375 L 6.839844 -4.484375 C 6.78125 -4.714844 6.675781 -4.90625 6.53125 -5.054688 C 6.386719 -5.203125 6.15625 -5.316406 5.84375 -5.390625 C 5.527344 -5.46875 5.085938 -5.503906 4.515625 -5.503906 L 2.59375 -5.503906 L 2.59375 -0.898438 C 2.59375 -0.449219 2.820312 -0.226562 3.269531 -0.226562 L 5.21875 -0.226562 C 5.941406 -0.226562 6.535156 -0.351562 7.003906 -0.601562 C 7.476562 -0.851562 7.84375 -1.324219 8.113281 -2.023438 L 8.28125 -1.996094 L 8.160156 0 Z M 0.765625 0 "/></g></g></g><g fill="#2b2b2b" fill-opacity="1"><g transform="translate(214.174115, 231.448886)"><g><path d="M 0.765625 0 L 0.765625 -0.195312 C 0.996094 -0.265625 1.152344 -0.414062 1.238281 -0.644531 C 1.324219 -0.875 1.363281 -1.296875 1.363281 -1.90625 L 1.363281 -8.59375 C 1.363281 -9.214844 1.324219 -9.636719 1.238281 -9.863281 C 1.152344 -10.085938 0.996094 -10.234375 0.765625 -10.304688 L 0.765625 -10.5 L 3.195312 -10.5 L 3.195312 -10.304688 C 2.964844 -10.234375 2.808594 -10.085938 2.722656 -9.863281 C 2.636719 -9.636719 2.59375 -9.214844 2.59375 -8.59375 L 2.59375 -0.914062 C 2.59375 -0.464844 2.820312 -0.238281 3.269531 -0.238281 L 5.054688 -0.238281 C 5.773438 -0.238281 6.328125 -0.347656 6.710938 -0.5625 C 7.097656 -0.777344 7.421875 -1.164062 7.679688 -1.726562 L 7.84375 -1.695312 L 7.738281 0 Z M 0.765625 0 "/></g></g></g></svg>